<svg xmlns="http://www.w3.org/2000/svg" data-name="Layer 1" viewBox="0 0 32 32">
    <circle cx="16" cy="16" r="14" fill="#f4af3d" data-name="Group" opacity=".6"/>
    <path d="M21 18.615a2.749 2.749 0 0 1-.391 1.476 3.148 3.148 0 0 1-1.127 1.06 5.828 5.828 0 0 1-1.775.638 11.786 11.786 0 0 1-2.335.211 14.853 14.853 0 0 1-2.523-.185A7.771 7.771 0 0 1 11 21.272v-1.75q.418.169.931.332t1.08.29q.567.127 1.167.206a9.139 9.139 0 0 0 1.194.079 8.18 8.18 0 0 0 1.492-.116 3.302 3.302 0 0 0 .998-.332 1.414 1.414 0 0 0 .56-.528 1.381 1.381 0 0 0 .176-.69 1.277 1.277 0 0 0-.135-.59 1.56 1.56 0 0 0-.493-.523 5.115 5.115 0 0 0-.978-.522q-.62-.263-1.593-.59t-1.747-.643a6.31 6.31 0 0 1-1.316-.707 2.855 2.855 0 0 1-.83-.902 2.429 2.429 0 0 1-.29-1.218 2.367 2.367 0 0 1 .371-1.312 3.004 3.004 0 0 1 1.046-.965 5.504 5.504 0 0 1 1.62-.59A10.174 10.174 0 0 1 16.357 10a12.016 12.016 0 0 1 2.395.221 14.035 14.035 0 0 1 2.058.58l-.85 1.55q-.877-.305-1.802-.532a7.875 7.875 0 0 0-1.882-.227 4.5 4.5 0 0 0-2.038.354 1.099 1.099 0 0 0-.661 1.007 1.284 1.284 0 0 0 .155.643 1.56 1.56 0 0 0 .533.516 5.858 5.858 0 0 0 1.012.49q.634.249 1.579.554.972.317 1.734.633a6.255 6.255 0 0 1 1.302.712 2.852 2.852 0 0 1 .824.901A2.445 2.445 0 0 1 21 18.615z"
          fill="#231f20" opacity=".6" style="isolation:isolate"/>
    <path d="M24.456 20.213c1.67 5.497-1.74 8.223-5.002 9.215-7.09 2.155-14.271-1.985-16.74-8.935C.867 15.295 2.829 9.349 6.01 6.325c1.336-1.271.105 3.132.432 4.854.089.467.336 1.352.766 2.137a8.216 8.216 0 0 0 1.583 1.997c1.158 1.056 2.916 1.632 3.917 1.851 1.092.102 2.42-.012 3.24-.261 3.663-1.113 7.37-.436 8.508 3.31z"
          fill="#00b5d9" fill-opacity=".502" fill-rule="evenodd"/>
</svg>