<svg xmlns="http://www.w3.org/2000/svg" data-name="Layer 1" viewBox="0 0 32 32">
    <path d="M16 2a14 14 0 1 0 14 14A14 14 0 0 0 16 2zm0 20a6 6 0 1 1 6-6 6 6 0 0 1-6 6z" fill="#40b6e0" opacity=".5"/>
    <path d="M24.456 20.213c1.67 5.497-1.74 8.223-5.002 9.215-7.09 2.155-14.271-1.985-16.74-8.935C.867 15.295 2.829 9.349 6.01 6.325c1.336-1.271.105 3.132.432 4.854.089.467.336 1.352.766 2.137a8.216 8.216 0 0 0 1.583 1.997c1.158 1.056 2.916 1.632 3.917 1.851 1.092.102 2.42-.012 3.24-.261 3.663-1.113 7.37-.436 8.508 3.31z"
          fill="#00b5d9" fill-opacity=".502" fill-rule="evenodd"/>
</svg>