<svg xmlns="http://www.w3.org/2000/svg" data-name="Layer 1" viewBox="0 0 32 32">
    <path d="M30 16a14 14 0 0 1-14 14A14 14 0 0 1 2 16 14 14 0 0 1 16 2a14 14 0 0 1 14 14z" fill="#f98b9d"
          fill-opacity=".784" data-name="Group" opacity=".6"/>
    <path d="M19.29 15.102h-2.872v9.435h-2.145v-9.435H12v-.88l2.273-.796V12.3a6.95 6.95 0 0 1 .264-2.08 3.17 3.17 0 0 1 .762-1.319 2.783 2.783 0 0 1 1.224-.697A6.042 6.042 0 0 1 18.164 8a5.619 5.619 0 0 1 1.272.135 9.345 9.345 0 0 1 1.037.299l-.551 1.652a7.361 7.361 0 0 0-.791-.229 3.941 3.941 0 0 0-.897-.1 2.609 2.609 0 0 0-.808.112 1.166 1.166 0 0 0-.563.393 1.914 1.914 0 0 0-.334.767 5.752 5.752 0 0 0-.111 1.248v1.219h2.871v1.606z"
          fill="#231f20" opacity=".6"/>
    <path d="M24.476 20.108c1.67 5.497-1.74 8.223-5.002 9.215-7.09 2.155-14.272-1.985-16.74-8.935C.886 15.19 2.848 9.244 6.03 6.22c1.336-1.271.105 3.132.432 4.854.089.467.336 1.352.766 2.137a8.216 8.216 0 0 0 1.583 1.997c1.158 1.056 2.915 1.632 3.917 1.851 1.092.102 2.42-.012 3.24-.261 3.662-1.113 7.369-.436 8.508 3.31z"
          fill="#00b5d9" fill-opacity=".502" fill-rule="evenodd"/>
</svg>