<?xml version="1.0" encoding="UTF-8" standalone="no"?>
<!-- Created with Inkscape (http://www.inkscape.org/) -->

<svg xmlns="http://www.w3.org/2000/svg"
     width="40"
     height="40"
     viewBox="0 0 32 32">
    <g>
        <path style="fill:#00b5d9;fill-opacity:1;fill-rule:evenodd;stroke-width:0.90851063"
              d="m 27.162293,22.883251 c 0,7.035849 -4.968423,9.015256 -9.142774,9.015256 -9.075039,0 -16.431812,-7.356773 -16.431812,-16.431812 0,-6.7439305 3.751019,-13.4304315 9.874176,-15.0711265 2.04074,-0.5468145 -1.9575508,3.3522142 -2.188,5.4865128 -0.06256,0.579396 -0.088463,1.703188 0.1360809,2.7766602 0.2376877,1.1363066 0.7390561,2.2256435 1.1428431,2.9042055 0.981268,1.649015 2.835399,2.95019 3.93027,3.563627 1.24342,0.508224 2.841001,0.848263 3.890266,0.848263 4.687321,0 8.78895,2.113488 8.78895,6.908414 z"/>
    </g>
    <g style="display:none">
        <circle style="fill:#ff0000;fill-rule:evenodd"
                id="path1703"
                cx="18.406874"
                cy="6.8314176"
                r="9.1702909"/>
    </g>
</svg>
