<svg xmlns="http://www.w3.org/2000/svg" width="32" height="32">
    <circle cx="16" cy="16" r="14" fill="#0038d9" fill-opacity=".502" fill-rule="evenodd"/>
    <text style="line-height:1.25;-inkscape-font-specification:'Arial Black, '" x="8.69" y="21.835" font-weight="400"
          font-size="17.529" font-family="Arial Black" letter-spacing="0" word-spacing="0" fill-opacity=".588"
          stroke-width="1.031">
        <tspan x="8.69" y="21.835">N</tspan>
    </text>
    <path d="M24.456 20.213c1.67 5.497-1.74 8.223-5.002 9.215-7.09 2.155-14.271-1.985-16.74-8.935C.867 15.295 2.829 9.349 6.01 6.325c1.336-1.271.105 3.132.432 4.854.089.467.336 1.352.766 2.137a8.216 8.216 0 0 0 1.583 1.997c1.158 1.056 2.916 1.632 3.917 1.851 1.092.102 2.42-.012 3.24-.261 3.663-1.113 7.37-.436 8.508 3.31z"
          fill="#00b5d9" fill-opacity=".502" fill-rule="evenodd"/>
</svg>